<svg id="Шар_1" data-name="Шар 1" xmlns="http://www.w3.org/2000/svg" xmlns:xlink="http://www.w3.org/1999/xlink" viewBox="0 0 300 300"><defs><style>.cls-1{fill:none;}.cls-2{clip-path:url(#clip-path);}.cls-3{fill:#16171a;}.cls-4{opacity:0.9;}.cls-5{fill:#fff;}</style><clipPath id="clip-path"><rect class="cls-1" width="300" height="300"/></clipPath></defs><g class="cls-2"><rect class="cls-3" x="-150" y="150" width="300" height="300"/><rect class="cls-3" x="150" y="150" width="300" height="300"/><rect class="cls-3" x="-150" y="-150" width="300" height="300"/><rect class="cls-3" x="150" y="-150" width="300" height="300"/><g class="cls-4"><path class="cls-5" d="M14.05,190.49c3.22,0,3.22-5,0-5s-3.22,5,0,5Z"/></g><g class="cls-4"><path class="cls-5" d="M44.63,260.54c3.21,0,3.22-5,0-5s-3.23,5,0,5Z"/></g><g class="cls-4"><path class="cls-5" d="M24.24,239.63c3.22,0,3.22-5,0-5s-3.22,5,0,5Z"/></g><g class="cls-4"><path class="cls-5" d="M96,294.65a1.88,1.88,0,0,0,0-3.75,1.88,1.88,0,0,0,0,3.75Z"/></g><g class="cls-4"><path class="cls-5" d="M115.76,231.79a1.88,1.88,0,0,0,0-3.75,1.88,1.88,0,0,0,0,3.75Z"/></g><g class="cls-4"><path class="cls-5" d="M62.58,294.65a1.88,1.88,0,0,0,0-3.75,1.88,1.88,0,0,0,0,3.75Z"/></g><g class="cls-4"><path class="cls-5" d="M17.3,265.2a1.88,1.88,0,0,0,0-3.75,1.88,1.88,0,0,0,0,3.75Z"/></g><g class="cls-4"><path class="cls-5" d="M61.26,222.56a1.88,1.88,0,0,0,0-3.75,1.88,1.88,0,0,0,0,3.75Z"/></g><g class="cls-4"><path class="cls-5" d="M93.79,190a1.88,1.88,0,0,0,0-3.75,1.88,1.88,0,0,0,0,3.75Z"/></g><g class="cls-4"><path class="cls-5" d="M62.58,188.72a1.88,1.88,0,0,0,0-3.75,1.88,1.88,0,0,0,0,3.75Z"/></g><g class="cls-4"><path class="cls-5" d="M34.45,206.3a1.88,1.88,0,0,0,0-3.75,1.88,1.88,0,0,0,0,3.75Z"/></g><g class="cls-4"><path class="cls-5" d="M135.54,187a1.88,1.88,0,0,0,0-3.75,1.88,1.88,0,0,0,0,3.75Z"/></g><g class="cls-4"><path class="cls-5" d="M58.18,158a1.88,1.88,0,0,0,0-3.75,1.88,1.88,0,0,0,0,3.75Z"/></g><g class="cls-4"><path class="cls-5" d="M131.15,289.44a.63.63,0,0,0,0-1.25.63.63,0,0,0,0,1.25Z"/></g><g class="cls-4"><path class="cls-5" d="M97.74,250.32a.63.63,0,0,0,0-1.25.63.63,0,0,0,0,1.25Z"/></g><g class="cls-4"><path class="cls-5" d="M33.57,276.7a.63.63,0,0,0,0-1.25.63.63,0,0,0,0,1.25Z"/></g><g class="cls-4"><path class="cls-5" d="M19.94,220.87a.63.63,0,0,0,0-1.25.63.63,0,0,0,0,1.25Z"/></g><g class="cls-4"><path class="cls-5" d="M41.92,294.72a.63.63,0,0,0,0-1.25.63.63,0,0,0,0,1.25Z"/></g><g class="cls-4"><path class="cls-5" d="M9,276.26A.63.63,0,0,0,9,275a.63.63,0,0,0,0,1.25Z"/></g><g class="cls-4"><path class="cls-5" d="M19.5,291.2a.63.63,0,0,0,0-1.25.63.63,0,0,0,0,1.25Z"/></g><g class="cls-4"><path class="cls-5" d="M10.71,164.61a.63.63,0,0,0,0-1.25.63.63,0,0,0,0,1.25Z"/></g><g class="cls-4"><path class="cls-5" d="M30.93,167.69a.63.63,0,0,0,0-1.25.63.63,0,0,0,0,1.25Z"/></g><g class="cls-4"><path class="cls-5" d="M70.93,230.42a.5.5,0,0,0,0-1,.5.5,0,0,0,0,1Z"/></g><g class="cls-4"><path class="cls-5" d="M78.4,192.18a.5.5,0,0,0,0-1,.5.5,0,0,0,0,1Z"/></g><g class="cls-4"><path class="cls-5" d="M84.12,215a.5.5,0,0,0,0-1,.5.5,0,0,0,0,1Z"/></g><g class="cls-4"><path class="cls-5" d="M67.85,233.94a.5.5,0,0,0,0-1,.5.5,0,0,0,0,1Z"/></g><g class="cls-4"><path class="cls-5" d="M52.91,204.49a.5.5,0,0,0,0-1,.5.5,0,0,0,0,1Z"/></g><g class="cls-4"><path class="cls-5" d="M70.49,253.72a.5.5,0,0,0,0-1,.5.5,0,0,0,0,1Z"/></g><g class="cls-4"><path class="cls-5" d="M85.87,220.31a.5.5,0,0,0,0-1,.5.5,0,0,0,0,1Z"/></g><g class="cls-4"><path class="cls-5" d="M106.53,187.34a.5.5,0,0,0,0-1,.5.5,0,0,0,0,1Z"/></g><g class="cls-4"><path class="cls-5" d="M75.33,161.85a.5.5,0,0,0,0-1,.5.5,0,0,0,0,1Z"/></g><g class="cls-4"><path class="cls-5" d="M125,164.93a.5.5,0,0,0,0-1,.5.5,0,0,0,0,1Z"/></g><g class="cls-4"><path class="cls-5" d="M128.07,208.88a.5.5,0,0,0,0-1,.5.5,0,0,0,0,1Z"/></g><g class="cls-4"><path class="cls-5" d="M136.42,224.71a.5.5,0,0,0,0-1,.5.5,0,0,0,0,1Z"/></g><g class="cls-4"><path class="cls-5" d="M121.92,252.4a.5.5,0,0,0,0-1,.5.5,0,0,0,0,1Z"/></g><g class="cls-4"><path class="cls-5" d="M106.09,264.26a.5.5,0,0,0,0-1,.5.5,0,0,0,0,1Z"/></g><g class="cls-4"><path class="cls-5" d="M117.52,284.48a.5.5,0,0,0,0-1,.5.5,0,0,0,0,1Z"/></g><g class="cls-4"><path class="cls-5" d="M65.22,283.17a.5.5,0,0,0,0-1,.5.5,0,0,0,0,1Z"/></g><g class="cls-4"><path class="cls-5" d="M46.32,246.24a.5.5,0,0,0,0-1,.5.5,0,0,0,0,1Z"/></g><g class="cls-4"><path class="cls-5" d="M84.56,272.18a.5.5,0,0,0,0-1,.5.5,0,0,0,0,1Z"/></g><g class="cls-4"><path class="cls-5" d="M84.12,240.53a.5.5,0,0,0,0-1,.5.5,0,0,0,0,1Z"/></g><g class="cls-4"><path class="cls-5" d="M107.41,208.44a.5.5,0,0,0,0-1,.5.5,0,0,0,0,1Z"/></g><g class="cls-4"><path class="cls-5" d="M99.5,166.68a.5.5,0,0,0,0-1,.5.5,0,0,0,0,1Z"/></g><g class="cls-4"><path class="cls-5" d="M136,270.42a.5.5,0,0,0,0-1,.5.5,0,0,0,0,1Z"/></g><g class="cls-4"><path class="cls-5" d="M101.26,231.74a.5.5,0,0,0,0-1,.5.5,0,0,0,0,1Z"/></g><g class="cls-4"><path class="cls-5" d="M113.57,183.39a.5.5,0,0,0,0-1,.5.5,0,0,0,0,1Z"/></g><g class="cls-4"><path class="cls-5" d="M52.47,170.64a.5.5,0,0,0,0-1,.5.5,0,0,0,0,1Z"/></g><g class="cls-4"><path class="cls-5" d="M28.29,193.5a.5.5,0,0,0,0-1,.5.5,0,0,0,0,1Z"/></g><g class="cls-4"><path class="cls-5" d="M5,206.68a.5.5,0,0,0,0-1,.5.5,0,0,0,0,1Z"/></g><g class="cls-4"><path class="cls-5" d="M27.41,159.52a1.25,1.25,0,0,0,0-2.5,1.25,1.25,0,0,0,0,2.5Z"/></g><g class="cls-4"><path class="cls-5" d="M145.21,285.23a1.25,1.25,0,0,0,0-2.5,1.25,1.25,0,0,0,0,2.5Z"/></g><g class="cls-4"><path class="cls-5" d="M44.12,160.84a1.25,1.25,0,0,0,0-2.5,1.25,1.25,0,0,0,0,2.5Z"/></g><g class="cls-4"><path class="cls-5" d="M150.49,237.32a1.25,1.25,0,0,0,0-2.5,1.25,1.25,0,0,0,0,2.5Z"/></g><g class="cls-4"><path class="cls-5" d="M128.51,151.17a1.25,1.25,0,0,0,0-2.5,1.25,1.25,0,0,0,0,2.5Z"/></g><g class="cls-4"><path class="cls-5" d="M150.49,201.65c3.22,0,3.22-5,0-5s-3.22,5,0,5Z"/></g><g class="cls-4"><path class="cls-5" d="M92.91,153.55a1.88,1.88,0,0,0,0-3.75,1.88,1.88,0,0,0,0,3.75Z"/></g><g class="cls-4"><path class="cls-5" d="M223.62,230.48c3.22,0,3.22-5,0-5s-3.22,5,0,5Z"/></g><g class="cls-4"><path class="cls-5" d="M239.56,208c3.22,0,3.22-5,0-5s-3.22,5,0,5Z"/></g><g class="cls-4"><path class="cls-5" d="M277.46,232.57c3.22,0,3.22-5,0-5s-3.22,5,0,5Z"/></g><g class="cls-4"><path class="cls-5" d="M276.94,234.4c3.21,0,3.22-5,0-5s-3.23,5,0,5Z"/></g><g class="cls-4"><path class="cls-5" d="M279,234.4c3.21,0,3.22-5,0-5s-3.23,5,0,5Z"/></g><g class="cls-4"><path class="cls-5" d="M278.77,232.83c3.21,0,3.22-5,0-5s-3.23,5,0,5Z"/></g><g class="cls-4"><path class="cls-5" d="M267,235.71c3.22,0,3.23-5,0-5s-3.22,5,0,5Z"/></g><g class="cls-4"><path class="cls-5" d="M279.29,194.94c3.22,0,3.22-5,0-5s-3.22,5,0,5Z"/></g><g class="cls-4"><path class="cls-5" d="M277.46,178.73c3.22,0,3.22-5,0-5s-3.22,5,0,5Z"/></g><g class="cls-4"><path class="cls-5" d="M207.41,184.22c3.22,0,3.23-5,0-5s-3.22,5,0,5Z"/></g><g class="cls-4"><path class="cls-5" d="M199.05,291.9c3.22,0,3.22-5,0-5s-3.22,5,0,5Z"/></g><g class="cls-4"><path class="cls-5" d="M295.75,296.87c3.22,0,3.23-5,0-5s-3.22,5,0,5Z"/></g><g class="cls-4"><path class="cls-5" d="M251.06,276c3.22,0,3.22-5,0-5s-3.22,5,0,5Z"/></g><g class="cls-4"><path class="cls-5" d="M177.36,256.62c3.22,0,3.22-5,0-5s-3.22,5,0,5Z"/></g><g class="cls-4"><path class="cls-5" d="M260.73,297.91c3.22,0,3.22-5,0-5s-3.22,5,0,5Z"/></g><g class="cls-4"><path class="cls-5" d="M231.59,243.22a1.88,1.88,0,0,0,0-3.75,1.88,1.88,0,0,0,0,3.75Z"/></g><g class="cls-4"><path class="cls-5" d="M162.14,156.63a1.88,1.88,0,0,0,0-3.75,1.88,1.88,0,0,0,0,3.75Z"/></g><g class="cls-4"><path class="cls-5" d="M234.67,161.47a1.88,1.88,0,0,0,0-3.75,1.88,1.88,0,0,0,0,3.75Z"/></g><g class="cls-4"><path class="cls-5" d="M160,219.49a1.88,1.88,0,0,0,0-3.75,1.88,1.88,0,0,0,0,3.75Z"/></g><g class="cls-4"><path class="cls-5" d="M281.26,264.39a.63.63,0,0,0,0-1.25.63.63,0,0,0,0,1.25Z"/></g><g class="cls-4"><path class="cls-5" d="M296.65,245.93a.63.63,0,0,0,0-1.25.63.63,0,0,0,0,1.25Z"/></g><g class="cls-4"><path class="cls-5" d="M269,207.25a.63.63,0,0,0,0-1.25.63.63,0,0,0,0,1.25Z"/></g><g class="cls-4"><path class="cls-5" d="M253.57,249a.63.63,0,0,0,0-1.25.63.63,0,0,0,0,1.25Z"/></g><g class="cls-4"><path class="cls-5" d="M255.33,221.75a.63.63,0,0,0,0-1.25.63.63,0,0,0,0,1.25Z"/></g><g class="cls-4"><path class="cls-5" d="M202.14,207.25a.63.63,0,0,0,0-1.25.63.63,0,0,0,0,1.25Z"/></g><g class="cls-4"><path class="cls-5" d="M252.25,177.8a.63.63,0,0,0,0-1.25.63.63,0,0,0,0,1.25Z"/></g><g class="cls-4"><path class="cls-5" d="M214.89,168.57a.63.63,0,0,0,0-1.25.63.63,0,0,0,0,1.25Z"/></g><g class="cls-4"><path class="cls-5" d="M176.21,182.19a.63.63,0,0,0,0-1.25.63.63,0,0,0,0,1.25Z"/></g><g class="cls-4"><path class="cls-5" d="M191.15,229.67a.63.63,0,0,0,0-1.25.63.63,0,0,0,0,1.25Z"/></g><g class="cls-4"><path class="cls-5" d="M165.66,288.57a.63.63,0,0,0,0-1.25.63.63,0,0,0,0,1.25Z"/></g><g class="cls-4"><path class="cls-5" d="M215.77,259.55a.63.63,0,0,0,0-1.25.63.63,0,0,0,0,1.25Z"/></g><g class="cls-4"><path class="cls-5" d="M278.63,286.37a.63.63,0,0,0,0-1.25.63.63,0,0,0,0,1.25Z"/></g><g class="cls-4"><path class="cls-5" d="M240.82,288.13a.63.63,0,0,0,0-1.25.63.63,0,0,0,0,1.25Z"/></g><g class="cls-4"><path class="cls-5" d="M234.23,260.43a.63.63,0,0,0,0-1.25.63.63,0,0,0,0,1.25Z"/></g><g class="cls-4"><path class="cls-5" d="M211.37,289.44a.63.63,0,0,0,0-1.25.63.63,0,0,0,0,1.25Z"/></g><g class="cls-4"><path class="cls-5" d="M229.4,272.74a.63.63,0,0,0,0-1.25.63.63,0,0,0,0,1.25Z"/></g><g class="cls-4"><path class="cls-5" d="M231.15,288.13a.63.63,0,0,0,0-1.25.63.63,0,0,0,0,1.25Z"/></g><g class="cls-4"><path class="cls-5" d="M238.19,274.06a.63.63,0,0,0,0-1.25.63.63,0,0,0,0,1.25Z"/></g><g class="cls-4"><path class="cls-5" d="M240.38,252.52a.63.63,0,0,0,0-1.25.63.63,0,0,0,0,1.25Z"/></g><g class="cls-4"><path class="cls-5" d="M247.42,224.83a.63.63,0,0,0,0-1.25.63.63,0,0,0,0,1.25Z"/></g><g class="cls-4"><path class="cls-5" d="M226.32,212.52a.63.63,0,0,0,0-1.25.63.63,0,0,0,0,1.25Z"/></g><g class="cls-4"><path class="cls-5" d="M232.47,192.3a.63.63,0,0,0,0-1.25.63.63,0,0,0,0,1.25Z"/></g><g class="cls-4"><path class="cls-5" d="M275.55,163.73a.63.63,0,0,0,0-1.25.63.63,0,0,0,0,1.25Z"/></g><g class="cls-4"><path class="cls-5" d="M174.89,215.47a.5.5,0,0,0,0-1,.5.5,0,0,0,0,1Z"/></g><g class="cls-4"><path class="cls-5" d="M191.59,165.81a.5.5,0,0,0,0-1,.5.5,0,0,0,0,1Z"/></g><g class="cls-4"><path class="cls-5" d="M160.39,163.17a.5.5,0,0,0,0-1,.5.5,0,0,0,0,1Z"/></g><g class="cls-4"><path class="cls-5" d="M164.34,198.33a.5.5,0,0,0,0-1,.5.5,0,0,0,0,1Z"/></g><g class="cls-4"><path class="cls-5" d="M199.51,258.11a.5.5,0,0,0,0-1,.5.5,0,0,0,0,1Z"/></g><g class="cls-4"><path class="cls-5" d="M154.23,260.75a.5.5,0,0,0,0-1,.5.5,0,0,0,0,1Z"/></g><g class="cls-4"><path class="cls-5" d="M295.33,174.16a.5.5,0,0,0,0-1,.5.5,0,0,0,0,1Z"/></g><g class="cls-4"><path class="cls-5" d="M206.54,242.6a1.25,1.25,0,0,0,0-2.5,1.25,1.25,0,0,0,0,2.5Z"/></g><g class="cls-4"><path class="cls-5" d="M192,174a1.25,1.25,0,0,0,0-2.5,1.25,1.25,0,0,0,0,2.5Z"/></g><g class="cls-4"><path class="cls-5" d="M280.82,154.69a1.25,1.25,0,0,0,0-2.5,1.25,1.25,0,0,0,0,2.5Z"/></g><g class="cls-4"><path class="cls-5" d="M262.8,151.17a1.25,1.25,0,0,0,0-2.5,1.25,1.25,0,0,0,0,2.5Z"/></g><g class="cls-4"><path class="cls-5" d="M149.84,223.26a1.25,1.25,0,0,0,0-2.5,1.25,1.25,0,0,0,0,2.5Z"/></g><g class="cls-4"><path class="cls-5" d="M149,187.15c3.22,0,3.22-5,0-5s-3.22,5,0,5Z"/></g><g class="cls-4"><path class="cls-5" d="M220.6,151.8a1.88,1.88,0,0,0,0-3.75,1.88,1.88,0,0,0,0,3.75Z"/></g><g class="cls-4"><path class="cls-5" d="M51.59,49.15a1.88,1.88,0,0,0,0-3.75,1.88,1.88,0,0,0,0,3.75Z"/></g><g class="cls-4"><path class="cls-5" d="M55.55,102.34a1.88,1.88,0,0,0,0-3.75,1.88,1.88,0,0,0,0,3.75Z"/></g><g class="cls-4"><path class="cls-5" d="M23,8.72A1.88,1.88,0,0,0,23,5a1.88,1.88,0,0,0,0,3.75Z"/></g><g class="cls-4"><path class="cls-5" d="M12.91,52.67a1.88,1.88,0,0,0,0-3.75,1.88,1.88,0,0,0,0,3.75Z"/></g><g class="cls-4"><path class="cls-5" d="M78.4,22.78a1.88,1.88,0,0,0,0-3.75,1.88,1.88,0,0,0,0,3.75Z"/></g><g class="cls-4"><path class="cls-5" d="M77.08,83.44a1.88,1.88,0,0,0,0-3.75,1.88,1.88,0,0,0,0,3.75Z"/></g><g class="cls-4"><path class="cls-5" d="M121.92,56.63a1.88,1.88,0,0,0,0-3.75,1.88,1.88,0,0,0,0,3.75Z"/></g><g class="cls-4"><path class="cls-5" d="M134.67,109a.63.63,0,0,0,0-1.25.63.63,0,0,0,0,1.25Z"/></g><g class="cls-4"><path class="cls-5" d="M87.19,36.92a.63.63,0,0,0,0-1.25.63.63,0,0,0,0,1.25Z"/></g><g class="cls-4"><path class="cls-5" d="M47.19,13.18a.63.63,0,0,0,0-1.25.63.63,0,0,0,0,1.25Z"/></g><g class="cls-4"><path class="cls-5" d="M16.43,114.28a.63.63,0,0,0,0-1.25.63.63,0,0,0,0,1.25Z"/></g><g class="cls-4"><path class="cls-5" d="M64.34,129.66a.63.63,0,0,0,0-1.25.63.63,0,0,0,0,1.25Z"/></g><g class="cls-4"><path class="cls-5" d="M40.16,80a.63.63,0,0,0,0-1.25.63.63,0,0,0,0,1.25Z"/></g><g class="cls-4"><path class="cls-5" d="M23.9,136.69a.63.63,0,0,0,0-1.25.63.63,0,0,0,0,1.25Z"/></g><g class="cls-4"><path class="cls-5" d="M47.63,116.47a.63.63,0,0,0,0-1.25.63.63,0,0,0,0,1.25Z"/></g><g class="cls-4"><path class="cls-5" d="M15.11,84.39a.63.63,0,0,0,0-1.25.63.63,0,0,0,0,1.25Z"/></g><g class="cls-4"><path class="cls-5" d="M92,107.24A.63.63,0,0,0,92,106a.63.63,0,0,0,0,1.25Z"/></g><g class="cls-4"><path class="cls-5" d="M86.31,61.09a.63.63,0,0,0,0-1.25.63.63,0,0,0,0,1.25Z"/></g><g class="cls-4"><path class="cls-5" d="M63.9,39.55a.63.63,0,0,0,0-1.25.63.63,0,0,0,0,1.25Z"/></g><g class="cls-4"><path class="cls-5" d="M115.32,81.31a.63.63,0,0,0,0-1.25.63.63,0,0,0,0,1.25Z"/></g><g class="cls-4"><path class="cls-5" d="M106.09,124.83a.63.63,0,0,0,0-1.25.63.63,0,0,0,0,1.25Z"/></g><g class="cls-4"><path class="cls-5" d="M121.92,129.22a.63.63,0,0,0,0-1.25.63.63,0,0,0,0,1.25Z"/></g><g class="cls-4"><path class="cls-5" d="M83.68,145a.63.63,0,0,0,0-1.25.63.63,0,0,0,0,1.25Z"/></g><g class="cls-4"><path class="cls-5" d="M23,33a.63.63,0,0,0,0-1.25A.63.63,0,0,0,23,33Z"/></g><g class="cls-4"><path class="cls-5" d="M11.15,21.53a.63.63,0,0,0,0-1.25.63.63,0,0,0,0,1.25Z"/></g><g class="cls-4"><path class="cls-5" d="M37.09,56.13a.5.5,0,0,0,0-1,.5.5,0,0,0,0,1Z"/></g><g class="cls-4"><path class="cls-5" d="M26.1,100.09a.5.5,0,0,0,0-1,.5.5,0,0,0,0,1Z"/></g><g class="cls-4"><path class="cls-5" d="M73.13,103.6a.5.5,0,0,0,0-1,.5.5,0,0,0,0,1Z"/></g><g class="cls-4"><path class="cls-5" d="M55.55,60.53a.5.5,0,0,0,0-1,.5.5,0,0,0,0,1Z"/></g><g class="cls-4"><path class="cls-5" d="M117.52,31.52a.5.5,0,0,0,0-1,.5.5,0,0,0,0,1Z"/></g><g class="cls-4"><path class="cls-5" d="M137.74,21.41a.5.5,0,0,0,0-1,.5.5,0,0,0,0,1Z"/></g><g class="cls-4"><path class="cls-5" d="M107,12.18a.5.5,0,0,0,0-1,.5.5,0,0,0,0,1Z"/></g><g class="cls-4"><path class="cls-5" d="M140.38,145.36a.5.5,0,0,0,0-1,.5.5,0,0,0,0,1Z"/></g><g class="cls-4"><path class="cls-5" d="M129,68.88a.5.5,0,0,0,0-1,.5.5,0,0,0,0,1Z"/></g><g class="cls-4"><path class="cls-5" d="M103.46,75.47a.5.5,0,0,0,0-1,.5.5,0,0,0,0,1Z"/></g><g class="cls-4"><path class="cls-5" d="M58.18,143.91a1.25,1.25,0,0,0,0-2.5,1.25,1.25,0,0,0,0,2.5Z"/></g><g class="cls-4"><path class="cls-5" d="M-.72,141.27a1.25,1.25,0,0,0,0-2.5,1.25,1.25,0,0,0,0,2.5Z"/></g><g class="cls-4"><path class="cls-5" d="M38,132a1.25,1.25,0,0,0,0-2.5,1.25,1.25,0,0,0,0,2.5Z"/></g><g class="cls-4"><path class="cls-5" d="M3.68,108.75a1.25,1.25,0,0,0,0-2.5,1.25,1.25,0,0,0,0,2.5Z"/></g><g class="cls-4"><path class="cls-5" d="M142.58,92.92a1.25,1.25,0,0,0,0-2.5,1.25,1.25,0,0,0,0,2.5Z"/></g><g class="cls-4"><path class="cls-5" d="M129,21.28a1.25,1.25,0,0,0,0-2.5,1.25,1.25,0,0,0,0,2.5Z"/></g><g class="cls-4"><path class="cls-5" d="M114.89,152.19c3.21,0,3.22-5,0-5s-3.23,5,0,5Z"/></g><g class="cls-4"><path class="cls-5" d="M150.93,59.45c3.22,0,3.22-5,0-5s-3.22,5,0,5Z"/></g><g class="cls-4"><path class="cls-5" d="M101.7,51.54c3.22,0,3.22-5,0-5s-3.22,5,0,5Z"/></g><g class="cls-4"><path class="cls-5" d="M251.32,37.64c3.22,0,3.23-5,0-5s-3.22,5,0,5Z"/></g><g class="cls-4"><path class="cls-5" d="M197.74,36.07c3.22,0,3.23-5,0-5s-3.22,5,0,5Z"/></g><g class="cls-4"><path class="cls-5" d="M290,26.14c3.22,0,3.23-5,0-5s-3.22,5,0,5Z"/></g><g class="cls-4"><path class="cls-5" d="M248.74,10a1.88,1.88,0,0,0,0-3.75,1.88,1.88,0,0,0,0,3.75Z"/></g><g class="cls-4"><path class="cls-5" d="M279.94,127.83a1.88,1.88,0,0,0,0-3.75,1.88,1.88,0,0,0,0,3.75Z"/></g><g class="cls-4"><path class="cls-5" d="M209.18,90.91a1.88,1.88,0,0,0,0-3.75,1.88,1.88,0,0,0,0,3.75Z"/></g><g class="cls-4"><path class="cls-5" d="M294.45,82.12a1.88,1.88,0,0,0,0-3.75,1.88,1.88,0,0,0,0,3.75Z"/></g><g class="cls-4"><path class="cls-5" d="M284.34,43.88a1.88,1.88,0,0,0,0-3.75,1.88,1.88,0,0,0,0,3.75Z"/></g><g class="cls-4"><path class="cls-5" d="M236.43,100.58a1.88,1.88,0,0,0,0-3.75,1.88,1.88,0,0,0,0,3.75Z"/></g><g class="cls-4"><path class="cls-5" d="M170.94,69.81a1.88,1.88,0,0,0,0-3.75,1.88,1.88,0,0,0,0,3.75Z"/></g><g class="cls-4"><path class="cls-5" d="M200.83,15.82a.63.63,0,0,0,0-1.25.63.63,0,0,0,0,1.25Z"/></g><g class="cls-4"><path class="cls-5" d="M232.91,23.29a.63.63,0,0,0,0-1.25.63.63,0,0,0,0,1.25Z"/></g><g class="cls-4"><path class="cls-5" d="M174.45,23.29a.63.63,0,0,0,0-1.25.63.63,0,0,0,0,1.25Z"/></g><g class="cls-4"><path class="cls-5" d="M219.29,41.31a.63.63,0,0,0,0-1.25.63.63,0,0,0,0,1.25Z"/></g><g class="cls-4"><path class="cls-5" d="M172.25,65.49a.63.63,0,0,0,0-1.25.63.63,0,0,0,0,1.25Z"/></g><g class="cls-4"><path class="cls-5" d="M196,104.61a.63.63,0,0,0,0-1.25.63.63,0,0,0,0,1.25Z"/></g><g class="cls-4"><path class="cls-5" d="M174.45,120.43a.63.63,0,0,0,0-1.25.63.63,0,0,0,0,1.25Z"/></g><g class="cls-4"><path class="cls-5" d="M206.1,130.1a.63.63,0,0,0,0-1.25.63.63,0,0,0,0,1.25Z"/></g><g class="cls-4"><path class="cls-5" d="M231.59,65.49a.63.63,0,0,0,0-1.25.63.63,0,0,0,0,1.25Z"/></g><g class="cls-4"><path class="cls-5" d="M247,132.74a.63.63,0,0,0,0-1.25.63.63,0,0,0,0,1.25Z"/></g><g class="cls-4"><path class="cls-5" d="M274.23,83.07a.63.63,0,0,0,0-1.25.63.63,0,0,0,0,1.25Z"/></g><g class="cls-4"><path class="cls-5" d="M243.46,59.33a.63.63,0,0,0,0-1.25.63.63,0,0,0,0,1.25Z"/></g><g class="cls-4"><path class="cls-5" d="M266.76,9.22a.63.63,0,0,0,0-1.25.63.63,0,0,0,0,1.25Z"/></g><g class="cls-4"><path class="cls-5" d="M222.36,5.71a.63.63,0,0,0,0-1.25.63.63,0,0,0,0,1.25Z"/></g><g class="cls-4"><path class="cls-5" d="M269.83,28.88a.5.5,0,0,0,0-1,.5.5,0,0,0,0,1Z"/></g><g class="cls-4"><path class="cls-5" d="M272,56.57a.5.5,0,0,0,0-1,.5.5,0,0,0,0,1Z"/></g><g class="cls-4"><path class="cls-5" d="M200,68.44a.5.5,0,0,0,0-1,.5.5,0,0,0,0,1Z"/></g><g class="cls-4"><path class="cls-5" d="M163.9,32.39a.5.5,0,0,0,0-1,.5.5,0,0,0,0,1Z"/></g><g class="cls-4"><path class="cls-5" d="M155.11,81.62a.5.5,0,0,0,0-1,.5.5,0,0,0,0,1Z"/></g><g class="cls-4"><path class="cls-5" d="M164.34,126.46a.5.5,0,0,0,0-1,.5.5,0,0,0,0,1Z"/></g><g class="cls-4"><path class="cls-5" d="M191.16,139.21a.5.5,0,0,0,0-1,.5.5,0,0,0,0,1Z"/></g><g class="cls-4"><path class="cls-5" d="M232,148a.5.5,0,0,0,0-1,.5.5,0,0,0,0,1Z"/></g><g class="cls-4"><path class="cls-5" d="M263.68,99.21a.5.5,0,0,0,0-1,.5.5,0,0,0,0,1Z"/></g><g class="cls-4"><path class="cls-5" d="M222.36,109.32a.5.5,0,0,0,0-1,.5.5,0,0,0,0,1Z"/></g><g class="cls-4"><path class="cls-5" d="M256.21,76.35a.5.5,0,0,0,0-1,.5.5,0,0,0,0,1Z"/></g><g class="cls-4"><path class="cls-5" d="M235.11,39.43a.5.5,0,0,0,0-1,.5.5,0,0,0,0,1Z"/></g><g class="cls-4"><path class="cls-5" d="M221.92,139.52a1.25,1.25,0,0,0,0-2.5,1.25,1.25,0,0,0,0,2.5Z"/></g><g class="cls-4"><path class="cls-5" d="M299.28,141.27a1.25,1.25,0,0,0,0-2.5,1.25,1.25,0,0,0,0,2.5Z"/></g><g class="cls-4"><path class="cls-5" d="M149.4,117.1a1.25,1.25,0,0,0,0-2.5,1.25,1.25,0,0,0,0,2.5Z"/></g><g class="cls-4"><path class="cls-5" d="M258.41,153.07c3.21,0,3.22-5,0-5s-3.23,5,0,5Z"/></g><g class="cls-4"><path class="cls-5" d="M170.5,153.51c3.21,0,3.22-5,0-5s-3.23,5,0,5Z"/></g><g class="cls-4"><path class="cls-5" d="M149.84,142.08c3.21,0,3.22-5,0-5s-3.23,5,0,5Z"/></g><g class="cls-4"><path class="cls-5" d="M149.84,42.12a1.88,1.88,0,0,0,0-3.75,1.88,1.88,0,0,0,0,3.75Z"/></g><g class="cls-4"><path class="cls-5" d="M163,9.59a1.88,1.88,0,0,0,0-3.75,1.88,1.88,0,0,0,0,3.75Z"/></g></g></svg>